<svg width="51" height="39" viewBox="0 0 51 39" fill="none" xmlns="http://www.w3.org/2000/svg">
<path d="M49.5925 8.84395L27.3644 0.347254C26.1531 -0.115751 24.8463 -0.115751 23.6358 0.347254L1.40689 8.84395C-0.468963 9.56077 -0.468963 12.6471 1.40689 13.364L5.28211 14.8452C4.43184 16.1529 3.90909 17.7481 3.85729 19.4951C3.08989 20.0423 2.54961 21.0298 2.54961 22.2087C2.54961 23.2774 3.00224 24.1767 3.65408 24.7517L1.61965 36.1415C1.44275 37.1319 2.04838 38.0718 2.86358 38.0718H7.33487C8.15087 38.0718 8.7565 37.1319 8.57959 36.1415L6.54516 24.7517C7.197 24.1767 7.64963 23.2774 7.64963 22.2087C7.64963 21.0616 7.13405 20.1018 6.40172 19.5446C6.46228 18.0555 7.07429 16.7388 8.05046 15.904L23.635 21.8616C24.357 22.1373 25.742 22.4813 27.3636 21.8616L49.5925 13.3649C51.4692 12.6471 51.4692 9.56176 49.5925 8.84395ZM28.1127 24.8945C25.8392 25.763 23.902 25.2831 22.8859 24.8945L11.3296 20.4776L10.1996 31.7265C10.1996 35.2313 17.0496 38.0718 25.4997 38.0718C33.9498 38.0718 40.7998 35.2313 40.7998 31.7265L39.6698 20.4766L28.1127 24.8945Z" fill="#004643"/>
</svg>
